<svg width="24" height="24" viewBox="0 0 24 24" fill="currentColor" xmlns="http://www.w3.org/2000/svg" class="MuiSvgIcon-root MuiSvgIcon-fontSizeMedium css-vubbuv" focusable="false" aria-hidden="true"><path d="M12.8126 19.1676C12.5599 19.1676 12.3175 19.0664 12.1387 18.8863C11.96 18.7062 11.8596 18.462 11.8596 18.2073C11.8596 9.74776 16.3019 7.57257 16.4902 7.48373C16.6039 7.42893 16.7273 7.3974 16.8532 7.39098C16.9791 7.38456 17.105 7.40337 17.2236 7.44632C17.3422 7.48927 17.4512 7.55551 17.5443 7.6412C17.6373 7.72689 17.7126 7.83033 17.7657 7.94553C17.8188 8.06073 17.8487 8.18541 17.8536 8.31233C17.8586 8.43926 17.8385 8.56591 17.7946 8.68496C17.7506 8.80401 17.6837 8.91309 17.5976 9.00589C17.5115 9.09868 17.408 9.17336 17.2931 9.22557C17.1585 9.2928 13.7657 11.0634 13.7657 18.2073C13.7657 18.462 13.6653 18.7062 13.4865 18.8863C13.3078 19.0664 13.0654 19.1676 12.8126 19.1676Z"></path><path d="M12.6899 19.1676C12.4834 19.1675 12.2825 19.0997 12.1175 18.9746C11.9525 18.8495 11.8323 18.6737 11.775 18.4738C10.2871 13.2819 9.00646 12.6504 8.65027 12.5808C8.13682 12.4812 7.52807 13.151 7.21119 13.5604C7.05526 13.761 6.82666 13.8909 6.57565 13.9216C6.32465 13.9524 6.07182 13.8814 5.87277 13.7242C5.67372 13.5671 5.54476 13.3368 5.51427 13.0838C5.48377 12.8309 5.55423 12.5761 5.71016 12.3755C6.75135 11.0359 7.86163 10.4717 9.01242 10.6949C10.8327 11.0551 12.292 13.3527 13.606 17.9408C13.676 18.1854 13.6466 18.4481 13.5244 18.6709C13.4022 18.8938 13.1972 19.0586 12.9544 19.1292C12.8686 19.1549 12.7795 19.1678 12.6899 19.1676Z"></path><path d="M18.7561 10.5376C20.5477 10.5376 22 9.0741 22 7.26879C22 5.46349 20.5477 4 18.7561 4C16.9646 4 15.5122 5.46349 15.5122 7.26879C15.5122 9.0741 16.9646 10.5376 18.7561 10.5376Z"></path><path d="M3.87084 19.2001C4.35178 19.2001 4.74167 18.8072 4.74167 18.3226C4.74167 17.8379 4.35178 17.445 3.87084 17.445C3.38989 17.445 3 17.8379 3 18.3226C3 18.8072 3.38989 19.2001 3.87084 19.2001Z"></path><path d="M4.9322 16.3921C5.41315 16.3921 5.80304 15.9993 5.80304 15.5146C5.80304 15.03 5.41315 14.6371 4.9322 14.6371C4.45125 14.6371 4.06137 15.03 4.06137 15.5146C4.06137 15.9993 4.45125 16.3921 4.9322 16.3921Z"></path></svg>