<svg width="32" height="32" viewBox="0 0 24 24" fill="none" xmlns="http://www.w3.org/2000/svg" class="MuiSvgIcon-root MuiSvgIcon-fontSizeMedium css-vubbuv" focusable="false" aria-hidden="true"><path d="M11.7881 3C14.2026 3 16.2818 3.8029 18.0255 5.4087C19.7693 7.0145 20.7563 8.99819 20.9868 11.3598C21.0317 11.6175 20.9622 11.8446 20.7781 12.0411C20.594 12.2376 20.361 12.3406 20.0789 12.35C19.8124 12.3594 19.5801 12.2792 19.3819 12.1092C19.1837 11.9393 19.0538 11.7178 18.9922 11.4446C18.7806 9.62211 18 8.08914 16.6505 6.84567C15.301 5.60219 13.6808 4.98045 11.79 4.98045C9.72046 4.98045 7.96177 5.7095 6.51395 7.1676C5.06612 8.6257 4.3422 10.3951 4.3422 12.4757C4.3422 14.5064 5.07151 16.2225 6.53011 17.6239C7.98869 19.0254 9.742 19.7261 11.79 19.7261C12.848 19.7261 13.8446 19.4984 14.7797 19.0429C15.7148 18.5875 16.5349 17.9772 17.24 17.212H15.7466C15.5096 17.212 15.3113 17.1321 15.1515 16.9723C14.9917 16.8125 14.9118 16.6141 14.9118 16.3772C14.9118 16.1323 14.9917 15.9295 15.1515 15.769C15.3113 15.6085 15.5096 15.5283 15.7466 15.5283H19.4292C19.7118 15.5283 19.9475 15.6227 20.1362 15.8114C20.325 16.0002 20.4194 16.2359 20.4194 16.5185V20.1761C20.4194 20.413 20.3415 20.609 20.1857 20.7641C20.0299 20.9192 19.8319 20.9968 19.5917 20.9968C19.3515 20.9968 19.1535 20.9192 18.9977 20.7641C18.8419 20.609 18.764 20.413 18.764 20.1761V18.5022C17.869 19.5 16.821 20.2859 15.6199 20.8598C14.4188 21.4337 13.1422 21.7207 11.79 21.7207C10.4929 21.7207 9.27318 21.4756 8.13078 20.9853C6.9884 20.4951 5.98709 19.8293 5.12686 18.9879C4.26661 18.1465 3.5907 17.163 3.09913 16.0374C2.60755 14.9117 2.36176 13.7004 2.36176 12.4033C2.36176 11.1062 2.60755 9.88647 3.09913 8.74417C3.5907 7.60189 4.2666 6.60588 5.12685 5.75613C5.98709 4.90639 6.9884 4.2346 8.13078 3.74075C9.27318 3.24692 10.4923 3 11.7881 3Z" fill="currentColor"></path></svg>