<svg width="32" height="32" viewBox="0 0 24 24" fill="none" xmlns="http://www.w3.org/2000/svg" class="MuiSvgIcon-root MuiSvgIcon-fontSizeMedium css-vubbuv" focusable="false" aria-hidden="true"><path d="M4.675 20.875L7.075 18.475V20.075C7.075 20.3583 7.17083 20.5958 7.3625 20.7875C7.55417 20.9792 7.79167 21.075 8.075 21.075C8.35833 21.075 8.59583 20.9792 8.7875 20.7875C8.97917 20.5958 9.075 20.3583 9.075 20.075V16.075C9.075 15.7917 8.97917 15.5542 8.7875 15.3625C8.59583 15.1708 8.35833 15.075 8.075 15.075H4.075C3.79167 15.075 3.55417 15.1708 3.3625 15.3625C3.17083 15.5542 3.075 15.7917 3.075 16.075C3.075 16.3583 3.17083 16.5958 3.3625 16.7875C3.55417 16.9792 3.79167 17.075 4.075 17.075H5.675L3.275 19.475C3.09167 19.6583 3 19.8917 3 20.175C3 20.4583 3.09167 20.6917 3.275 20.875C3.45833 21.0583 3.69167 21.15 3.975 21.15C4.25833 21.15 4.49167 21.0583 4.675 20.875Z" fill="currentColor"></path><path d="M17.075 20.075V18.475L19.475 20.875C19.6583 21.0583 19.8917 21.15 20.175 21.15C20.4583 21.15 20.6917 21.0583 20.875 20.875C21.0583 20.6917 21.15 20.4583 21.15 20.175C21.15 19.8917 21.0583 19.6583 20.875 19.475L18.475 17.075H20.075C20.3583 17.075 20.5958 16.9792 20.7875 16.7875C20.9792 16.5958 21.075 16.3583 21.075 16.075C21.075 15.7917 20.9792 15.5542 20.7875 15.3625C20.5958 15.1708 20.3583 15.075 20.075 15.075H16.075C15.7917 15.075 15.5542 15.1708 15.3625 15.3625C15.1708 15.5542 15.075 15.7917 15.075 16.075V20.075C15.075 20.3583 15.1708 20.5958 15.3625 20.7875C15.5542 20.9792 15.7917 21.075 16.075 21.075C16.3583 21.075 16.5958 20.9792 16.7875 20.7875C16.9792 20.5958 17.075 20.3583 17.075 20.075Z" fill="currentColor"></path><path d="M3.275 4.675L5.675 7.075H4.075C3.79167 7.075 3.55417 7.17083 3.3625 7.3625C3.17083 7.55417 3.075 7.79167 3.075 8.075C3.075 8.35833 3.17083 8.59583 3.3625 8.7875C3.55417 8.97917 3.79167 9.075 4.075 9.075H8.075C8.35833 9.075 8.59583 8.97917 8.7875 8.7875C8.97917 8.59583 9.075 8.35833 9.075 8.075V4.075C9.075 3.79167 8.97917 3.55417 8.7875 3.3625C8.59583 3.17083 8.35833 3.075 8.075 3.075C7.79167 3.075 7.55417 3.17083 7.3625 3.3625C7.17083 3.55417 7.075 3.79167 7.075 4.075V5.675L4.675 3.275C4.49167 3.09167 4.25833 3 3.975 3C3.69167 3 3.45833 3.09167 3.275 3.275C3.09167 3.45833 3 3.69167 3 3.975C3 4.25833 3.09167 4.49167 3.275 4.675Z" fill="currentColor"></path><path d="M20.075 7.075H18.475L20.875 4.675C21.0583 4.49167 21.15 4.25833 21.15 3.975C21.15 3.69167 21.0583 3.45833 20.875 3.275C20.6917 3.09167 20.4583 3 20.175 3C19.8917 3 19.6583 3.09167 19.475 3.275L17.075 5.675V4.075C17.075 3.79167 16.9792 3.55417 16.7875 3.3625C16.5958 3.17083 16.3583 3.075 16.075 3.075C15.7917 3.075 15.5542 3.17083 15.3625 3.3625C15.1708 3.55417 15.075 3.79167 15.075 4.075V8.075C15.075 8.35833 15.1708 8.59583 15.3625 8.7875C15.5542 8.97917 15.7917 9.075 16.075 9.075H20.075C20.3583 9.075 20.5958 8.97917 20.7875 8.7875C20.9792 8.59583 21.075 8.35833 21.075 8.075C21.075 7.79167 20.9792 7.55417 20.7875 7.3625C20.5958 7.17083 20.3583 7.075 20.075 7.075Z" fill="currentColor"></path><path d="M12.0732 13.5732C11.6482 13.5732 11.292 13.4295 11.0045 13.142C10.717 12.8545 10.5732 12.4982 10.5732 12.0732C10.5732 11.6482 10.717 11.292 11.0045 11.0045C11.292 10.717 11.6482 10.5732 12.0732 10.5732C12.4982 10.5732 12.8545 10.717 13.142 11.0045C13.4295 11.292 13.5732 11.6482 13.5732 12.0732C13.5732 12.4982 13.4295 12.8545 13.142 13.142C12.8545 13.4295 12.4982 13.5732 12.0732 13.5732Z" fill="currentColor"></path></svg>