<svg width="32" height="32" viewBox="0 0 24 24" fill="none" xmlns="http://www.w3.org/2000/svg" class="MuiSvgIcon-root MuiSvgIcon-fontSizeMedium css-vubbuv" focusable="false" aria-hidden="true"><path d="M8.27583 19.5009C8.107 19.3321 8.02258 19.1359 8.02258 18.9123C8.02258 18.6888 8.107 18.4926 8.27583 18.3238L9.53888 17.0357C7.14032 16.7669 5.22528 16.1886 3.79376 15.3009C2.36224 14.4132 1.64648 13.2629 1.64648 11.8498C1.64648 10.3353 2.64793 9.10381 4.65083 8.15526C6.65373 7.20671 9.10338 6.73243 11.9998 6.73243C14.9034 6.73243 17.3572 7.20435 19.3612 8.14818C21.3652 9.09203 22.3672 10.3259 22.3672 11.8498C22.3672 12.8179 21.9344 13.6756 21.0688 14.4227C20.2032 15.1698 19.0335 15.7647 17.5596 16.2075C17.1893 16.3285 16.8617 16.2975 16.5769 16.1145C16.2922 15.9315 16.1498 15.6335 16.1498 15.2205C16.1498 15.0067 16.2204 14.8096 16.3617 14.6292C16.503 14.4487 16.6817 14.3288 16.8976 14.2694C17.9795 13.9549 18.8291 13.5665 19.4465 13.1042C20.0639 12.6419 20.3726 12.2237 20.3726 11.8498C20.3726 11.2977 19.705 10.6391 18.3699 9.87428C17.0347 9.10943 14.9114 8.72701 11.9998 8.72701C9.10483 8.72701 6.98563 9.10943 5.64216 9.87428C4.29868 10.6391 3.62693 11.2977 3.62693 11.8498C3.62693 12.5998 4.06371 13.2245 4.93726 13.7237C5.81081 14.223 7.43092 14.6977 9.79758 15.1477L8.30083 13.6618C8.132 13.519 8.05175 13.321 8.06008 13.0678C8.06842 12.8145 8.14867 12.6165 8.30083 12.4737C8.46027 12.3049 8.65176 12.2205 8.87531 12.2205C9.09886 12.2205 9.29505 12.3049 9.46388 12.4737L12.2813 15.2803C12.3835 15.3824 12.4583 15.4917 12.5057 15.608C12.5532 15.7243 12.5769 15.8466 12.5769 15.9748C12.5769 16.1031 12.5532 16.2254 12.5057 16.3417C12.4583 16.458 12.3835 16.5672 12.2813 16.6694L9.46388 19.5009C9.29505 19.6698 9.09469 19.7542 8.86281 19.7542C8.63093 19.7542 8.43527 19.6698 8.27583 19.5009Z" fill="currentColor"></path><path d="M11.1609 2.10001C11.1609 1.60296 11.5639 1.20001 12.0609 1.20001C12.558 1.20001 12.9609 1.60296 12.9609 2.10001V3.90001C12.9609 4.39707 12.558 4.80001 12.0609 4.80001C11.5639 4.80001 11.1609 4.39707 11.1609 3.90001V2.10001Z" fill="currentColor"></path><path d="M11.1609 19.5C11.1609 19.003 11.5639 18.6 12.0609 18.6C12.558 18.6 12.9609 19.003 12.9609 19.5V21.3C12.9609 21.7971 12.558 22.2 12.0609 22.2C11.5639 22.2 11.1609 21.7971 11.1609 21.3V19.5Z" fill="currentColor"></path><path d="M11.1609 8.10001C11.1609 7.60295 11.5639 7.20001 12.0609 7.20001C12.558 7.20001 12.9609 7.60295 12.9609 8.10001V12.3C12.9609 12.7971 12.558 13.2 12.0609 13.2C11.5639 13.2 11.1609 12.7971 11.1609 12.3V8.10001Z" fill="currentColor"></path></svg>