<svg width="32" height="32" viewBox="0 0 24 24" fill="none" xmlns="http://www.w3.org/2000/svg" class="MuiSvgIcon-root MuiSvgIcon-fontSizeMedium css-vubbuv" focusable="false" aria-hidden="true"><path d="M11.1761 17.5141L11.1511 6.40875L9.69893 7.84677C9.50182 8.05331 9.2703 8.15657 9.00435 8.15657C8.73842 8.15657 8.50689 8.05802 8.30978 7.8609C8.10326 7.6638 8 7.43227 8 7.16633C8 6.90039 8.10326 6.66416 8.30978 6.45762L11.4576 3.3098C11.5598 3.20762 11.6714 3.13044 11.7924 3.07827C11.9134 3.02609 12.0381 3 12.1663 3C12.2946 3 12.4192 3.02609 12.5403 3.07827C12.6613 3.13044 12.7729 3.20762 12.875 3.3098L16.037 6.47175C16.2341 6.66887 16.3327 6.90275 16.3327 7.1734C16.3327 7.44405 16.2294 7.67793 16.0229 7.87505C15.8258 8.07215 15.5901 8.1707 15.3158 8.1707C15.0415 8.1707 14.8105 8.07215 14.6228 7.87505L13.1566 6.40875V17.5141L14.6479 16.0761C14.845 15.8862 15.0765 15.7895 15.3424 15.7859C15.6084 15.7822 15.8399 15.879 16.037 16.0761C16.2341 16.2732 16.3327 16.5047 16.3327 16.7707C16.3327 17.0366 16.2341 17.2681 16.037 17.4652L12.875 20.6272C12.7729 20.7294 12.6613 20.8066 12.5403 20.8587C12.4192 20.9109 12.2946 20.937 12.1663 20.937C12.0381 20.937 11.9134 20.9109 11.7924 20.8587C11.6714 20.8066 11.5598 20.7294 11.4576 20.6272L8.30978 17.4652C8.11268 17.2681 8.01413 17.0366 8.01413 16.7707C8.01413 16.5047 8.11268 16.2732 8.30978 16.0761C8.50689 15.8696 8.73607 15.7705 8.9973 15.7788C9.25853 15.7871 9.49241 15.8862 9.69893 16.0761L11.1761 17.5141Z" fill="currentColor"></path></svg>