<svg width="32" height="32" viewBox="0 0 24 24" fill="none" xmlns="http://www.w3.org/2000/svg" class="MuiSvgIcon-root MuiSvgIcon-fontSizeMedium css-vubbuv" focusable="false" aria-hidden="true"><g clip-path="url(#clip0_11909_11437)"><path d="M14.5 10H15.5V9C15.5 8.71667 15.5958 8.47917 15.7875 8.2875C15.9792 8.09583 16.2167 8 16.5 8C16.7833 8 17.0208 8.09583 17.2125 8.2875C17.4042 8.47917 17.5 8.71667 17.5 9V11C17.5 11.2833 17.4042 11.5208 17.2125 11.7125C17.0208 11.9042 16.7833 12 16.5 12H14.5C14.2167 12 13.9792 11.9042 13.7875 11.7125C13.5958 11.5208 13.5 11.2833 13.5 11C13.5 10.7167 13.5958 10.4792 13.7875 10.2875C13.9792 10.0958 14.2167 10 14.5 10Z" fill="currentColor"></path><path d="M8.5 9V10H9.5C9.78333 10 10.0208 10.0958 10.2125 10.2875C10.4042 10.4792 10.5 10.7167 10.5 11C10.5 11.2833 10.4042 11.5208 10.2125 11.7125C10.0208 11.9042 9.78333 12 9.5 12H7.5C7.21667 12 6.97917 11.9042 6.7875 11.7125C6.59583 11.5208 6.5 11.2833 6.5 11V9C6.5 8.71667 6.59583 8.47917 6.7875 8.2875C6.97917 8.09583 7.21667 8 7.5 8C7.78333 8 8.02083 8.09583 8.2125 8.2875C8.40417 8.47917 8.5 8.71667 8.5 9Z" fill="currentColor"></path><path d="M15.5 4V3H14.5C14.2167 3 13.9792 2.90417 13.7875 2.7125C13.5958 2.52083 13.5 2.28333 13.5 2C13.5 1.71667 13.5958 1.47917 13.7875 1.2875C13.9792 1.09583 14.2167 1 14.5 1H16.5C16.7833 1 17.0208 1.09583 17.2125 1.2875C17.4042 1.47917 17.5 1.71667 17.5 2V4C17.5 4.28333 17.4042 4.52083 17.2125 4.7125C17.0208 4.90417 16.7833 5 16.5 5C16.2167 5 15.9792 4.90417 15.7875 4.7125C15.5958 4.52083 15.5 4.28333 15.5 4Z" fill="currentColor"></path><path d="M9.5 3H8.5V4C8.5 4.28333 8.40417 4.52083 8.2125 4.7125C8.02083 4.90417 7.78333 5 7.5 5C7.21667 5 6.97917 4.90417 6.7875 4.7125C6.59583 4.52083 6.5 4.28333 6.5 4V2C6.5 1.71667 6.59583 1.47917 6.7875 1.2875C6.97917 1.09583 7.21667 1 7.5 1H9.5C9.78333 1 10.0208 1.09583 10.2125 1.2875C10.4042 1.47917 10.5 1.71667 10.5 2C10.5 2.28333 10.4042 2.52083 10.2125 2.7125C10.0208 2.90417 9.78333 3 9.5 3Z" fill="currentColor"></path><path d="M11.0159 22.1839L11.0139 15.2522L8.46832 17.7978C8.26797 17.9982 8.03223 18.0983 7.7611 18.0982C7.48996 18.0981 7.25416 17.9979 7.0537 17.7974C6.85323 17.5969 6.75296 17.3611 6.75288 17.09C6.7528 16.8189 6.85294 16.5831 7.05328 16.3828L11.2959 12.1401C11.4963 11.9398 11.732 11.8397 12.0031 11.8397C12.2743 11.8398 12.5101 11.9401 12.7106 12.1405L16.9557 16.3857C17.1561 16.5861 17.2564 16.8219 17.2565 17.0931C17.2566 17.3642 17.1564 17.5999 16.9561 17.8003C16.7557 18.0006 16.52 18.1008 16.2489 18.1007C15.9777 18.1006 15.7419 18.0003 15.5415 17.7999L12.9944 15.2528L12.9964 22.1845C12.9965 22.4438 12.8963 22.6737 12.696 22.874C12.4956 23.0744 12.2658 23.1745 12.0065 23.1744C11.7471 23.1743 11.5172 23.0741 11.3167 22.8736C11.1163 22.6731 11.016 22.4432 11.0159 22.1839Z" fill="currentColor"></path></g><defs><clipPath id="clip0_11909_11437"><rect width="24" height="24" fill="currentColor"></rect></clipPath></defs></svg>