<svg width="32" height="32" viewBox="0 0 24 24" fill="none" xmlns="http://www.w3.org/2000/svg" class="MuiSvgIcon-root MuiSvgIcon-fontSizeMedium css-vubbuv" focusable="false" aria-hidden="true"><path d="M7.075 18.475L4.675 20.875C4.49167 21.0583 4.25833 21.15 3.975 21.15C3.69167 21.15 3.45833 21.0583 3.275 20.875C3.09167 20.6917 3 20.4583 3 20.175C3 19.8917 3.09167 19.6583 3.275 19.475L5.675 17.075H4.075C3.79167 17.075 3.55417 16.9792 3.3625 16.7875C3.17083 16.5958 3.075 16.3583 3.075 16.075C3.075 15.7917 3.17083 15.5542 3.3625 15.3625C3.55417 15.1708 3.79167 15.075 4.075 15.075H8.075C8.35833 15.075 8.59583 15.1708 8.7875 15.3625C8.97917 15.5542 9.075 15.7917 9.075 16.075V20.075C9.075 20.3583 8.97917 20.5958 8.7875 20.7875C8.59583 20.9792 8.35833 21.075 8.075 21.075C7.79167 21.075 7.55417 20.9792 7.3625 20.7875C7.17083 20.5958 7.075 20.3583 7.075 20.075V18.475ZM17.075 18.475V20.075C17.075 20.3583 16.9792 20.5958 16.7875 20.7875C16.5958 20.9792 16.3583 21.075 16.075 21.075C15.7917 21.075 15.5542 20.9792 15.3625 20.7875C15.1708 20.5958 15.075 20.3583 15.075 20.075V16.075C15.075 15.7917 15.1708 15.5542 15.3625 15.3625C15.5542 15.1708 15.7917 15.075 16.075 15.075H20.075C20.3583 15.075 20.5958 15.1708 20.7875 15.3625C20.9792 15.5542 21.075 15.7917 21.075 16.075C21.075 16.3583 20.9792 16.5958 20.7875 16.7875C20.5958 16.9792 20.3583 17.075 20.075 17.075H18.475L20.875 19.475C21.0583 19.6583 21.15 19.8917 21.15 20.175C21.15 20.4583 21.0583 20.6917 20.875 20.875C20.6917 21.0583 20.4583 21.15 20.175 21.15C19.8917 21.15 19.6583 21.0583 19.475 20.875L17.075 18.475ZM5.675 7.075L3.275 4.675C3.09167 4.49167 3 4.25833 3 3.975C3 3.69167 3.09167 3.45833 3.275 3.275C3.45833 3.09167 3.69167 3 3.975 3C4.25833 3 4.49167 3.09167 4.675 3.275L7.075 5.675V4.075C7.075 3.79167 7.17083 3.55417 7.3625 3.3625C7.55417 3.17083 7.79167 3.075 8.075 3.075C8.35833 3.075 8.59583 3.17083 8.7875 3.3625C8.97917 3.55417 9.075 3.79167 9.075 4.075V8.075C9.075 8.35833 8.97917 8.59583 8.7875 8.7875C8.59583 8.97917 8.35833 9.075 8.075 9.075H4.075C3.79167 9.075 3.55417 8.97917 3.3625 8.7875C3.17083 8.59583 3.075 8.35833 3.075 8.075C3.075 7.79167 3.17083 7.55417 3.3625 7.3625C3.55417 7.17083 3.79167 7.075 4.075 7.075H5.675ZM18.475 7.075H20.075C20.3583 7.075 20.5958 7.17083 20.7875 7.3625C20.9792 7.55417 21.075 7.79167 21.075 8.075C21.075 8.35833 20.9792 8.59583 20.7875 8.7875C20.5958 8.97917 20.3583 9.075 20.075 9.075H16.075C15.7917 9.075 15.5542 8.97917 15.3625 8.7875C15.1708 8.59583 15.075 8.35833 15.075 8.075V4.075C15.075 3.79167 15.1708 3.55417 15.3625 3.3625C15.5542 3.17083 15.7917 3.075 16.075 3.075C16.3583 3.075 16.5958 3.17083 16.7875 3.3625C16.9792 3.55417 17.075 3.79167 17.075 4.075V5.675L19.475 3.275C19.6583 3.09167 19.8917 3 20.175 3C20.4583 3 20.6917 3.09167 20.875 3.275C21.0583 3.45833 21.15 3.69167 21.15 3.975C21.15 4.25833 21.0583 4.49167 20.875 4.675L18.475 7.075Z" fill="currentColor"></path></svg>