<svg width="24" height="24" viewBox="0 0 24 24" fill="currentColor" xmlns="http://www.w3.org/2000/svg" class="MuiSvgIcon-root MuiSvgIcon-fontSizeMedium css-vubbuv" focusable="false" aria-hidden="true"><path d="M10.5752 5.2815C10.4809 5.51059 10.4751 5.76649 10.5588 5.99964L10.5688 6.02964C10.6228 6.15021 10.7001 6.25889 10.7964 6.3494C10.8926 6.4399 11.0059 6.51044 11.1295 6.55693C11.2532 6.60342 11.3848 6.62495 11.5169 6.62026C11.6489 6.61558 11.7787 6.58478 11.8988 6.52964L12.0188 6.46964C12.7529 6.16891 13.539 6.01572 14.3323 6.01881C15.1256 6.02189 15.9105 6.1812 16.6422 6.48764C17.3739 6.79407 18.0381 7.24163 18.5969 7.80475C19.1557 8.36788 19.598 9.03555 19.8988 9.76964C20.1995 10.5037 20.3527 11.2899 20.3496 12.0832C20.3465 12.8764 20.1872 13.6614 19.8808 14.3931C19.5743 15.1248 19.1268 15.789 18.5637 16.3478C18.0005 16.9065 17.3329 17.3489 16.5988 17.6496H16.4688C16.2352 17.7514 16.0493 17.9384 15.9489 18.1725C15.8485 18.4067 15.8413 18.6703 15.9288 18.9096C15.9734 19.0342 16.0423 19.1487 16.1315 19.2465C16.2207 19.3442 16.3285 19.4233 16.4484 19.4791C16.5684 19.5349 16.6983 19.5663 16.8305 19.5716C16.9628 19.5768 17.0947 19.5558 17.2188 19.5096L17.3788 19.4496C18.3693 19.0619 19.2725 18.4806 20.0357 17.7396C20.7988 16.9986 21.4065 16.1129 21.8233 15.1342C22.24 14.1556 22.4574 13.1036 22.4627 12.0399C22.468 10.9763 22.2611 9.92219 21.8542 8.93942C21.4473 7.95665 20.8484 7.06489 20.0927 6.31633C19.337 5.56777 18.4396 4.97743 17.453 4.57984C16.4664 4.18226 15.4104 3.98542 14.3468 4.00084C13.2833 4.01626 12.2334 4.24362 11.2588 4.66964C11.1917 4.69104 11.1278 4.72131 11.0688 4.75964C10.8453 4.86646 10.6694 5.05242 10.5752 5.2815Z"></path><path d="M10.8273 18.8504C10.726 18.61 10.7226 18.3395 10.8178 18.0966C10.9131 17.8537 11.0996 17.6577 11.3373 17.5504C12.1985 17.0785 12.8561 16.3064 13.1847 15.3811C13.5134 14.4557 13.4902 13.4418 13.1195 12.5325C12.7489 11.6232 12.0567 10.882 11.1748 10.45C10.2929 10.0181 9.28298 9.9257 8.33735 10.1904C8.09059 10.2815 7.81788 10.2717 7.5783 10.1631C7.33871 10.0545 7.15155 9.85595 7.05735 9.61036C7.01071 9.48758 6.98872 9.35681 6.99263 9.22552C6.99654 9.09424 7.02627 8.96501 7.08013 8.84522C7.13399 8.72543 7.21092 8.61742 7.30653 8.52736C7.40214 8.43731 7.51455 8.36697 7.63735 8.32036C9.05003 7.92069 10.5602 8.05284 11.882 8.6918C13.2038 9.33075 14.2455 10.4322 14.8098 11.7875C15.3741 13.1428 15.4219 14.658 14.9441 16.0463C14.4664 17.4345 13.4962 18.5994 12.2173 19.3204C11.9772 19.4292 11.7037 19.4388 11.4565 19.3471C11.2093 19.2553 11.0083 19.0696 10.8973 18.8304L10.8273 18.8504Z"></path><path d="M6 19.4492C8.20914 19.4492 10 17.6584 10 15.4492C10 13.2401 8.20914 11.4492 6 11.4492C3.79086 11.4492 2 13.2401 2 15.4492C2 17.6584 3.79086 19.4492 6 19.4492Z"></path></svg>