<svg width="32" height="32" viewBox="0 0 24 24" fill="currentColor" xmlns="http://www.w3.org/2000/svg" class="MuiSvgIcon-root MuiSvgIcon-fontSizeMedium css-vubbuv" focusable="false" aria-hidden="true"><path fill-rule="evenodd" clip-rule="evenodd" d="M19 10.5H17.792C17.4062 9.61705 16.5252 9 15.5 9C14.4748 9 13.5938 9.61705 13.208 10.5H5C4.44772 10.5 4 10.9477 4 11.5C4 12.0523 4.44772 12.5 5 12.5H13.208C13.5938 13.383 14.4748 14 15.5 14C16.5252 14 17.4062 13.383 17.792 12.5H19C19.5523 12.5 20 12.0523 20 11.5C20 10.9477 19.5523 10.5 19 10.5ZM15.5 13C16.3284 13 17 12.3284 17 11.5C17 10.6716 16.3284 10 15.5 10C14.6716 10 14 10.6716 14 11.5C14 12.3284 14.6716 13 15.5 13Z"></path><path fill-rule="evenodd" clip-rule="evenodd" d="M19 16.5H10.792C10.4062 15.617 9.52516 15 8.5 15C7.47484 15 6.5938 15.617 6.20802 16.5H5C4.44772 16.5 4 16.9477 4 17.5C4 18.0523 4.44772 18.5 5 18.5H6.20802C6.5938 19.383 7.47484 20 8.5 20C9.52516 20 10.4062 19.383 10.792 18.5H19C19.5523 18.5 20 18.0523 20 17.5C20 16.9477 19.5523 16.5 19 16.5ZM8.5 19C9.32843 19 10 18.3284 10 17.5C10 16.6716 9.32843 16 8.5 16C7.67157 16 7 16.6716 7 17.5C7 18.3284 7.67157 19 8.5 19Z"></path><path fill-rule="evenodd" clip-rule="evenodd" d="M19 4.5H10.792C10.4062 3.61705 9.52516 3 8.5 3C7.47484 3 6.5938 3.61705 6.20802 4.5H5C4.44772 4.5 4 4.94772 4 5.5C4 6.05228 4.44772 6.5 5 6.5H6.20802C6.5938 7.38295 7.47484 8 8.5 8C9.52516 8 10.4062 7.38295 10.792 6.5H19C19.5523 6.5 20 6.05228 20 5.5C20 4.94772 19.5523 4.5 19 4.5ZM8.5 7C9.32843 7 10 6.32843 10 5.5C10 4.67157 9.32843 4 8.5 4C7.67157 4 7 4.67157 7 5.5C7 6.32843 7.67157 7 8.5 7Z"></path></svg>