<svg width="24" height="24" viewBox="0 0 24 24" fill="currentColor" xmlns="http://www.w3.org/2000/svg" class="MuiSvgIcon-root MuiSvgIcon-fontSizeMedium css-vubbuv" focusable="false" aria-hidden="true"><path d="M20.5 11C20.2348 11 19.9804 10.8946 19.7929 10.7071C19.6054 10.5196 19.5 10.2652 19.5 10C19.5 9.73478 19.6054 9.48043 19.7929 9.29289C19.9804 9.10536 20.2348 9 20.5 9H21V4H13V4.5C13 4.76522 12.8946 5.01957 12.7071 5.20711C12.5196 5.39464 12.2652 5.5 12 5.5C11.7348 5.5 11.4804 5.39464 11.2929 5.20711C11.1054 5.01957 11 4.76522 11 4.5V3.5C11 3.10218 11.158 2.72064 11.4393 2.43934C11.7206 2.15804 12.1022 2 12.5 2H21.5C21.8978 2 22.2794 2.15804 22.5607 2.43934C22.842 2.72064 23 3.10218 23 3.5V9.5C23 9.89782 22.842 10.2794 22.5607 10.5607C22.2794 10.842 21.8978 11 21.5 11H20.5Z"></path><path d="M7.5 7C7.10218 7 6.72064 7.15804 6.43934 7.43934C6.15804 7.72064 6 8.10218 6 8.5V10.5H11.5C12.2956 10.5 13.0587 10.8161 13.6213 11.3787C14.1839 11.9413 14.5 12.7044 14.5 13.5V16H16.5C16.8978 16 17.2794 15.842 17.5607 15.5607C17.842 15.2794 18 14.8978 18 14.5V8.5C18 8.10218 17.842 7.72064 17.5607 7.43934C17.2794 7.15804 16.8978 7 16.5 7H7.5Z"></path><path fill-rule="evenodd" clip-rule="evenodd" d="M2.5 21H11.5C11.8978 21 12.2794 20.842 12.5607 20.5607C12.842 20.2794 13 19.8978 13 19.5V13.5C13 13.1022 12.842 12.7206 12.5607 12.4393C12.2794 12.158 11.8978 12 11.5 12H2.5C2.10218 12 1.72065 12.158 1.43934 12.4393C1.15804 12.7206 1 13.1022 1 13.5V19.5C1 19.8978 1.15804 20.2794 1.43934 20.5607C1.72065 20.842 2.10218 21 2.5 21ZM11 19H3V14H11V19Z"></path></svg>