<svg width="24" height="24" viewBox="0 0 24 24" fill="currentColor" xmlns="http://www.w3.org/2000/svg" class="MuiSvgIcon-root MuiSvgIcon-fontSizeMedium css-vubbuv" focusable="false" aria-hidden="true"><path d="M10.5478 3.06461C11.0093 3.24921 11.2337 3.77299 11.0491 4.23449C10.9144 4.57144 10.7699 4.98085 10.626 5.45212C10.4809 5.92752 9.9779 6.19529 9.50249 6.05019C9.02708 5.90509 8.75932 5.40207 8.90442 4.92667C9.06107 4.4134 9.222 3.9557 9.37789 3.56599C9.56249 3.10448 10.0863 2.88001 10.5478 3.06461Z"></path><path d="M9.28743 6.95747C9.77624 7.04763 10.0994 7.51698 10.0092 8.00579C9.85929 8.8187 9.73847 9.69831 9.66776 10.6195C9.62972 11.1151 9.19712 11.486 8.70152 11.4479C8.20592 11.4099 7.835 10.9773 7.87304 10.4817C7.94898 9.49238 8.07856 8.54964 8.2391 7.67928C8.32927 7.19047 8.79862 6.8673 9.28743 6.95747Z"></path><path d="M9.6161 13.2446C9.59618 12.748 9.17742 12.3615 8.68076 12.3814C8.18411 12.4013 7.79763 12.8201 7.81754 13.3168C7.85489 14.2482 7.95061 15.2001 8.12132 16.1539C8.20889 16.6432 8.67652 16.9688 9.1658 16.8812C9.65508 16.7937 9.98074 16.326 9.89317 15.8368C9.73841 14.9721 9.6505 14.1026 9.6161 13.2446Z"></path><path d="M9.39889 17.7866C9.86742 17.6206 10.3818 17.8658 10.5478 18.3344C10.6901 18.7361 10.8506 19.1329 11.0307 19.5231C11.239 19.9744 11.042 20.5091 10.5907 20.7174C10.1394 20.9257 9.60465 20.7287 9.39635 20.2774C9.19221 19.8351 9.01108 19.387 8.8511 18.9354C8.68511 18.4669 8.93037 17.9526 9.39889 17.7866Z"></path><path d="M19.9922 4.23449C20.1768 3.77299 19.9523 3.24921 19.4908 3.06461C19.0293 2.88001 18.5055 3.10448 18.3209 3.56599C17.7149 5.08104 17.008 7.68717 16.8016 10.6812C16.5951 13.675 16.8844 17.1248 18.3394 20.2774C18.5477 20.7287 19.0824 20.9257 19.5337 20.7174C19.985 20.5091 20.182 19.9744 19.9737 19.5231C18.6859 16.7328 18.4038 13.6112 18.5973 10.805C18.7908 7.99902 19.4554 5.57658 19.9922 4.23449Z"></path><path d="M6.11505 13.0404L5.40103 12.3264L6.11503 11.6124C6.31192 11.4155 6.41111 11.1828 6.41258 10.9144C6.41406 10.6459 6.31592 10.4128 6.11814 10.2151C5.92038 10.0173 5.68457 9.91646 5.41073 9.91254C5.13691 9.90862 4.90155 10.0051 4.70465 10.202L3.29044 11.6162C3.09356 11.8131 2.99677 12.0482 3.00008 12.3214C3.00342 12.5946 3.10353 12.8297 3.30043 13.0266L4.71464 14.4408C4.91153 14.6377 5.1442 14.7369 5.41262 14.7384C5.68107 14.7398 5.91417 14.6417 6.11194 14.4439C6.3097 14.2461 6.40889 14.012 6.40949 13.7415C6.41009 13.471 6.31194 13.2373 6.11505 13.0404Z"></path><path d="M12.2599 12.3264L11.5459 13.0404C11.349 13.2373 11.2509 13.471 11.2515 13.7415C11.2521 14.012 11.3513 14.2461 11.549 14.4439C11.7468 14.6417 11.9799 14.7398 12.2483 14.7384C12.5168 14.7369 12.7494 14.6377 12.9463 14.4408L14.3605 13.0266C14.5574 12.8297 14.6575 12.5946 14.6609 12.3214C14.6642 12.0482 14.5674 11.8131 14.3705 11.6162L12.9563 10.202C12.7594 10.0051 12.5241 9.90862 12.2502 9.91254C11.9764 9.91646 11.7406 10.0173 11.5428 10.2151C11.345 10.4128 11.2469 10.6459 11.2484 10.9144C11.2499 11.1828 11.349 11.4155 11.5459 11.6124L12.2599 12.3264Z"></path></svg>