<svg width="32" height="32" viewBox="0 0 24 24" fill="none" xmlns="http://www.w3.org/2000/svg" class="MuiSvgIcon-root MuiSvgIcon-fontSizeMedium css-vubbuv" focusable="false" aria-hidden="true"><path d="M6.42287 11.1761L17.5283 11.1511L16.0902 9.69892C15.8837 9.50182 15.7804 9.2703 15.7804 9.00435C15.7804 8.73842 15.879 8.50689 16.0761 8.30978C16.2732 8.10326 16.5047 8 16.7707 8C17.0366 8 17.2728 8.10326 17.4794 8.30978L20.6272 11.4576C20.7294 11.5598 20.8066 11.6714 20.8587 11.7924C20.9109 11.9134 20.937 12.0381 20.937 12.1663C20.937 12.2946 20.9109 12.4192 20.8587 12.5403C20.8066 12.6613 20.7294 12.7729 20.6272 12.875L17.4653 16.037C17.2681 16.2341 17.0343 16.3327 16.7636 16.3327C16.493 16.3327 16.2591 16.2294 16.0619 16.0229C15.8648 15.8258 15.7663 15.5901 15.7663 15.3158C15.7663 15.0415 15.8648 14.8105 16.0619 14.6228L17.5283 13.1566L6.42287 13.1565L7.8609 14.6478C8.05077 14.8449 8.14751 15.0765 8.15112 15.3424C8.15476 15.6084 8.05802 15.8399 7.8609 16.037C7.6638 16.2341 7.43227 16.3327 7.16632 16.3327C6.90039 16.3327 6.66887 16.2341 6.47175 16.037L3.3098 12.875C3.20762 12.7729 3.13044 12.6613 3.07827 12.5402C3.02609 12.4192 3 12.2946 3 12.1663C3 12.0381 3.02609 11.9134 3.07827 11.7924C3.13044 11.6714 3.20762 11.5598 3.3098 11.4576L6.47175 8.30978C6.66887 8.11268 6.90039 8.01412 7.16632 8.01412C7.43227 8.01412 7.6638 8.11268 7.8609 8.30978C8.06743 8.50689 8.16653 8.73607 8.1582 8.9973C8.14987 9.25853 8.05077 9.49241 7.8609 9.69892L6.42287 11.1761Z" fill="currentColor"></path></svg>