<svg width="32" height="32" viewBox="0 0 24 24" fill="none" xmlns="http://www.w3.org/2000/svg" class="MuiSvgIcon-root MuiSvgIcon-fontSizeMedium css-vubbuv" focusable="false" aria-hidden="true"><path d="M13 11H14C14.2833 11 14.5208 11.0958 14.7125 11.2875C14.9042 11.4792 15 11.7167 15 12C15 12.2833 14.9042 12.5208 14.7125 12.7125C14.5208 12.9042 14.2833 13 14 13H12C11.7167 13 11.4792 12.9042 11.2875 12.7125C11.0958 12.5208 11 12.2833 11 12V10C11 9.71667 11.0958 9.47917 11.2875 9.2875C11.4792 9.09583 11.7167 9 12 9C12.2833 9 12.5208 9.09583 12.7125 9.2875C12.9042 9.47917 13 9.71667 13 10V11ZM20 11V10C20 9.71667 20.0958 9.47917 20.2875 9.2875C20.4792 9.09583 20.7167 9 21 9C21.2833 9 21.5208 9.09583 21.7125 9.2875C21.9042 9.47917 22 9.71667 22 10V12C22 12.2833 21.9042 12.5208 21.7125 12.7125C21.5208 12.9042 21.2833 13 21 13H19C18.7167 13 18.4792 12.9042 18.2875 12.7125C18.0958 12.5208 18 12.2833 18 12C18 11.7167 18.0958 11.4792 18.2875 11.2875C18.4792 11.0958 18.7167 11 19 11H20ZM13 4V5C13 5.28333 12.9042 5.52083 12.7125 5.7125C12.5208 5.90417 12.2833 6 12 6C11.7167 6 11.4792 5.90417 11.2875 5.7125C11.0958 5.52083 11 5.28333 11 5V3C11 2.71667 11.0958 2.47917 11.2875 2.2875C11.4792 2.09583 11.7167 2 12 2H14C14.2833 2 14.5208 2.09583 14.7125 2.2875C14.9042 2.47917 15 2.71667 15 3C15 3.28333 14.9042 3.52083 14.7125 3.7125C14.5208 3.90417 14.2833 4 14 4H13ZM20 4H19C18.7167 4 18.4792 3.90417 18.2875 3.7125C18.0958 3.52083 18 3.28333 18 3C18 2.71667 18.0958 2.47917 18.2875 2.2875C18.4792 2.09583 18.7167 2 19 2H21C21.2833 2 21.5208 2.09583 21.7125 2.2875C21.9042 2.47917 22 2.71667 22 3V5C22 5.28333 21.9042 5.52083 21.7125 5.7125C21.5208 5.90417 21.2833 6 21 6C20.7167 6 20.4792 5.90417 20.2875 5.7125C20.0958 5.52083 20 5.28333 20 5V4ZM8.99999 16.4L4.09999 21.3C3.91665 21.4833 3.68332 21.575 3.39999 21.575C3.11665 21.575 2.88332 21.4833 2.69999 21.3C2.51665 21.1167 2.42499 20.8833 2.42499 20.6C2.42499 20.3167 2.51665 20.0833 2.69999 19.9L7.59999 15H3.99999C3.71665 15 3.47915 14.9042 3.28749 14.7125C3.09582 14.5208 2.99999 14.2833 2.99999 14C2.99999 13.7167 3.09582 13.4792 3.28749 13.2875C3.47915 13.0958 3.71665 13 3.99999 13H9.99999C10.2833 13 10.5208 13.0958 10.7125 13.2875C10.9042 13.4792 11 13.7167 11 14V20C11 20.2833 10.9042 20.5208 10.7125 20.7125C10.5208 20.9042 10.2833 21 9.99999 21C9.71665 21 9.47915 20.9042 9.28749 20.7125C9.09582 20.5208 8.99999 20.2833 8.99999 20V16.4Z" fill="currentColor"></path></svg>