<svg width="32" height="32" viewBox="0 0 24 24" fill="none" xmlns="http://www.w3.org/2000/svg" class="MuiSvgIcon-root MuiSvgIcon-fontSizeMedium css-vubbuv" focusable="false" aria-hidden="true"><path d="M11.425 11H10.425C10.1417 11 9.90417 11.0958 9.7125 11.2875C9.52083 11.4792 9.425 11.7167 9.425 12C9.425 12.2833 9.52083 12.5208 9.7125 12.7125C9.90417 12.9042 10.1417 13 10.425 13H12.425C12.7083 13 12.9458 12.9042 13.1375 12.7125C13.3292 12.5208 13.425 12.2833 13.425 12V10C13.425 9.71667 13.3292 9.47917 13.1375 9.2875C12.9458 9.09583 12.7083 9 12.425 9C12.1417 9 11.9042 9.09583 11.7125 9.2875C11.5208 9.47917 11.425 9.71667 11.425 10V11ZM4.425 11V10C4.425 9.71667 4.32917 9.47917 4.1375 9.2875C3.94583 9.09583 3.70833 9 3.425 9C3.14167 9 2.90417 9.09583 2.7125 9.2875C2.52083 9.47917 2.425 9.71667 2.425 10V12C2.425 12.2833 2.52083 12.5208 2.7125 12.7125C2.90417 12.9042 3.14167 13 3.425 13H5.425C5.70833 13 5.94583 12.9042 6.1375 12.7125C6.32917 12.5208 6.425 12.2833 6.425 12C6.425 11.7167 6.32917 11.4792 6.1375 11.2875C5.94583 11.0958 5.70833 11 5.425 11H4.425ZM11.425 4V5C11.425 5.28333 11.5208 5.52083 11.7125 5.7125C11.9042 5.90417 12.1417 6 12.425 6C12.7083 6 12.9458 5.90417 13.1375 5.7125C13.3292 5.52083 13.425 5.28333 13.425 5V3C13.425 2.71667 13.3292 2.47917 13.1375 2.2875C12.9458 2.09583 12.7083 2 12.425 2H10.425C10.1417 2 9.90417 2.09583 9.7125 2.2875C9.52083 2.47917 9.425 2.71667 9.425 3C9.425 3.28333 9.52083 3.52083 9.7125 3.7125C9.90417 3.90417 10.1417 4 10.425 4H11.425ZM4.425 4H5.425C5.70833 4 5.94583 3.90417 6.1375 3.7125C6.32917 3.52083 6.425 3.28333 6.425 3C6.425 2.71667 6.32917 2.47917 6.1375 2.2875C5.94583 2.09583 5.70833 2 5.425 2H3.425C3.14167 2 2.90417 2.09583 2.7125 2.2875C2.52083 2.47917 2.425 2.71667 2.425 3V5C2.425 5.28333 2.52083 5.52083 2.7125 5.7125C2.90417 5.90417 3.14167 6 3.425 6C3.70833 6 3.94583 5.90417 4.1375 5.7125C4.32917 5.52083 4.425 5.28333 4.425 5V4ZM15.425 16.4L20.325 21.3C20.5083 21.4833 20.7417 21.575 21.025 21.575C21.3083 21.575 21.5417 21.4833 21.725 21.3C21.9083 21.1167 22 20.8833 22 20.6C22 20.3167 21.9083 20.0833 21.725 19.9L16.825 15H20.425C20.7083 15 20.9458 14.9042 21.1375 14.7125C21.3292 14.5208 21.425 14.2833 21.425 14C21.425 13.7167 21.3292 13.4792 21.1375 13.2875C20.9458 13.0958 20.7083 13 20.425 13H14.425C14.1417 13 13.9042 13.0958 13.7125 13.2875C13.5208 13.4792 13.425 13.7167 13.425 14V20C13.425 20.2833 13.5208 20.5208 13.7125 20.7125C13.9042 20.9042 14.1417 21 14.425 21C14.7083 21 14.9458 20.9042 15.1375 20.7125C15.3292 20.5208 15.425 20.2833 15.425 20V16.4Z" fill="currentColor"></path></svg>